<?xml version="1.0" encoding="utf-8"?>
<svg viewBox="98.889 16.558 500 500" xmlns="http://www.w3.org/2000/svg">
  <path style="stroke: rgb(45, 45, 45); fill: rgb(222, 222, 222);" d="M 212.03 121.832 L 253.625 453.786 C 287.9 486.392 387.498 488.71 425.313 456.842 L 469.079 119.439 C 458.069 141.166 240.548 151.889 212.03 121.832 Z"/>
  <path style="fill: rgb(100, 158, 141);" d="M 198.855 117.955 L 211.748 120.156 C 214.708 153.854 466.428 152.919 468.889 119.44 L 479.988 116.999 L 481.164 107.663 L 470.863 103.279 L 461.426 72.41 C 454.51 102.769 222.694 97.664 212.206 70.967 L 204.841 102.91 L 196.504 107.752 L 198.855 117.955 Z"/>
  <path style="fill: rgb(100, 158, 141);" d="M 224.566 223.351 C 228.6 256.575 449.986 259.666 454.371 226.858 L 441.947 324.287 C 437.164 366.986 241.877 361.512 237.015 321.451 C 232.152 281.389 220.37 194.43 224.566 223.351 Z"/>
  <path style="fill: rgb(67, 122, 105);" d="M 212.389 70.129 C 249.154 45.676 434.478 48.533 461.252 70.743 C 469.844 103.078 212.409 99.065 212.389 70.129 Z"/>
  <path style="fill: rgb(190, 224, 213);" d="M 315.054 314.452 C 315.083 314.665 326.226 293.513 340.422 300.255 C 355.967 305.173 362.497 288.668 362.316 288.732 C 358.191 274.095 305.938 279.212 315.054 314.452 Z" transform="matrix(0.890326, -0.455324, 0.455324, 0.890326, -98.489146, 186.625859)"/>
  <path style="fill: rgb(190, 224, 213);" d="M 324.091 320.975 C 324.126 321.185 335.263 299.985 349.419 306.743 C 364.921 311.675 371.458 295.129 371.275 295.195 C 367.172 280.527 315.039 285.651 324.091 320.975 Z" transform="matrix(-0.897955, 0.440087, -0.440087, -0.897955, 792.783143, 424.657115)"/>
  <path style="stroke: rgb(45, 45, 45); fill: rgb(150, 207, 190);" d="M 237.82 69.044 C 267.907 50.235 418.986 52.879 440.896 69.964 C 447.565 94.5 238.768 90.861 237.82 69.044 Z"/>
  <path style="fill: rgb(190, 224, 213);" d="M 348.475 80.287 C 351.681 85.102 342.213 102.309 337.833 102.701 L 333.305 94.773 L 339.395 82.546 L 348.475 80.287 Z" transform="matrix(0.424365, 0.905491, -0.905491, 0.424365, 279.262296, -256.300045)"/>
  <path style="fill: rgb(100, 158, 141);" d="M 248.064 73.354 C 243.48 59.794 439.736 62.036 434.457 75.44 C 428.146 91.464 255.268 89.296 248.064 73.354 Z"/>
  <path style="fill: none; stroke: rgb(45, 45, 45);" d="M 212.124 120.588 L 199.525 117.908 L 196.591 107.178 L 205.106 103.512 L 212.71 70.049 C 232.924 49.442 428.126 45.036 461.282 70.564 L 470.423 102.33 L 481.504 108.23 L 480.141 116.811 L 469.063 119.289"/>
</svg>