<?xml version="1.0" encoding="utf-8"?>
<svg viewBox="98.889 16.558 750 500" xmlns="http://www.w3.org/2000/svg" xmlns:xlink="http://www.w3.org/1999/xlink" xmlns:bx="https://boxy-svg.com">
  <defs>
    <linearGradient id="gradient-1" bx:pinned="true">
      <stop offset="0" style=""/>
      <stop offset="1" style="stop-color: rgba(0, 0, 0, 0);"/>
    </linearGradient>
    <radialGradient id="gradient-1-0" gradientUnits="userSpaceOnUse" cx="446.798" cy="486.788" r="98.82" gradientTransform="matrix(2.740356, -1.076827, 0.401024, 2.197922, -709.347673, 527.208739)" xlink:href="#gradient-1"/>
  </defs>
  <path d="M 854.011 989.682 Q 967.178 910.914 983.641 989.682 L 998.159 1059.144 Q 1014.622 1137.912 884.992 1137.912 L 770.678 1137.912 Q 641.048 1137.912 754.215 1059.144 Z" style="fill: url(#gradient-1-0);" transform="matrix(0.999783, 0.020812, -0.020812, 0.999783, -297.210175, -648.64447)" bx:shape="triangle 641.048 910.914 373.574 226.998 0.873 0.347 1@e5815680"/>
  <path stroke-width="0" d="M 305.296 277.808 C 391.6 268.917 630.299 277.421 655.331 281.102 C 684.677 285.414 728.254 286.145 735.476 301.431 C 752.55 337.576 824.163 295.92 847.328 350.397 C 858.186 375.937 799.297 384.609 823.61 405.475 C 860.638 437.25 848.935 462.67 797.744 463.832 C 727.756 465.423 735.153 468.296 732.197 489.612 C 728.495 516.302 702.606 515.94 641.669 508.646 C 596.109 503.191 559.842 514.148 535.797 514.785 C 509.083 515.492 478.889 502.428 427.066 513.197 C 396.654 519.517 312.698 513.475 284.743 499.849 C 233.582 474.911 175.196 517.494 158.409 468.874 C 145.919 432.691 218.29 436.739 129.706 407.846 C 109.714 401.326 75.831 366.978 127.848 353.068 C 181.319 338.769 95.788 299.926 200.894 295.802 C 297.962 291.992 251.907 283.308 305.296 277.808 Z" style="stroke-width: 2px; fill: rgba(27, 59, 50, 0.4);" transform="matrix(0.99977, 0.021438, -0.021438, 0.99977, 8.572714, -10.080993)"/>
  <path style="stroke: rgb(45, 45, 45); fill: rgb(240, 240, 240); stroke-width: 3px;" d="M 328.499 104.987 L 372.297 481.412 C 410.39 518.386 521.85 521.014 564.44 484.878 L 616.232 102.274 C 603.727 126.909 360.169 139.071 328.499 104.987 Z" transform="matrix(0.742387, 0.674784, -0.665191, 0.742388, 325.529436, -239.801631)"/>
  <path style="fill: rgb(19, 42, 36);" d="M 353.139 186.304 C 357.83 239.92 614.008 244.907 619.06 191.962 L 604.749 349.191 C 599.242 418.095 373.261 409.26 367.609 344.612 C 361.957 279.966 348.264 139.633 353.139 186.304 Z" transform="matrix(0.739996, 0.672611, -0.672611, 0.739996, 319.321758, -251.977101)"/>
  <path style="fill: rgb(16, 30, 25);" d="M 499.954 110.408 C 541.511 71.404 748.894 75.961 778.492 111.389 C 787.573 162.966 499.495 156.565 499.954 110.408 Z" transform="matrix(0.742387, 0.674784, -0.665191, 0.742388, 241.378398, -401.71199)"/>
  <path style="fill: rgb(190, 224, 213);" d="M 424.285 328.65 C 424.3 329.068 448.968 287.728 474.363 300.904 C 502.608 310.518 517.802 278.26 517.453 278.383 C 512.347 249.778 413.517 259.777 424.285 328.65 Z" transform="matrix(0.968934, 0.247318, -0.247318, 0.968934, 87.826577, -107.157525)"/>
  <path style="fill: rgb(190, 224, 213);" d="M 424.873 352.278 C 424.899 352.689 449.542 311.255 474.865 324.464 C 503.033 334.1 518.228 301.763 517.871 301.893 C 512.796 273.227 414.199 283.239 424.873 352.278 Z" transform="matrix(-0.97224, -0.233985, 0.233985, -0.97224, 854.093006, 740.477038)"/>
  <path style="stroke: rgb(45, 45, 45); fill: rgba(190, 224, 213, 0.5);" d="M 531.141 117.67 C 563.951 101.051 728.587 103.386 752.44 118.483 C 759.678 140.167 532.147 136.95 531.141 117.67 Z" transform="matrix(0.739996, 0.672611, -0.672611, 0.739996, 247.478494, -400.580068)"/>
  <path style="fill: rgb(19, 42, 36);" d="M 456.692 158.787 L 471.103 161.429 C 474.121 201.877 755.875 200.753 758.924 160.57 L 771.368 157.64 L 772.767 146.434 L 761.276 141.173 L 750.984 104.122 C 742.977 140.561 483.553 134.433 472.048 102.39 L 463.524 140.73 L 454.15 146.541 L 456.692 158.787 Z" transform="matrix(0.742387, 0.674784, -0.665191, 0.742388, 255.694881, -376.130477)"/>
  <path style="fill: rgb(190, 224, 213);" d="M 635.456 109.282 C 641.683 119.198 623.598 154.647 615.159 155.455 L 606.353 139.122 L 617.972 113.936 L 635.456 109.282 Z" transform="matrix(-0.297619, 0.954685, -0.954685, -0.297619, 932.897605, -421.614835)"/>
</svg>