<?xml version="1.0" encoding="utf-8"?>
<svg width="160" height="160" viewBox="0 0 12 12" xmlns="http://www.w3.org/2000/svg">
  <g transform="matrix(0.681972, 0.182734, -0.182734, 0.681972, 4.004674, 2.486704)">
    <path d="M -4.479 -4.423 L -4.479 12.577 L -2.354 12.577 L -2.354 -4.423 L -4.479 -4.423 Z M -0.229 -4.423 L -0.229 12.577 L 1.896 12.577 L 1.896 -4.423 L -0.229 -4.423 Z M 4.021 -4.423 L 4.021 12.577 L 6.146 12.577 L 6.146 -4.423 L 4.021 -4.423 Z M 8.271 -4.423 L 8.271 12.577 L 10.396 12.577 L 10.396 -4.423 L 8.271 -4.423 Z M -4.479 -4.423 L 12.521 -4.423 L 12.521 -2.298 L -4.479 -2.298 L -4.479 -4.423 Z M -4.479 -0.173 L 12.521 -0.173 L 12.521 1.952 L -4.479 1.952 L -4.479 -0.173 Z M -4.479 4.077 L 12.521 4.077 L 12.521 6.202 L -4.479 6.202 L -4.479 4.077 Z M -4.479 8.327 L 12.521 8.327 L 12.521 10.452 L -4.479 10.452 L -4.479 8.327 Z" fill-rule="evenodd" transform="matrix(0.258819, 0.965926, -0.965926, 0.258819, 6.918369, -0.862193)" style="fill: rgba(100, 158, 141, 0.4);"/>
  </g>
</svg>