<?xml version="1.0" encoding="utf-8"?>
<svg viewBox="100 100 400 400" xmlns="http://www.w3.org/2000/svg">
  <path d="M 100 100 L 119.048 100 L 119.048 119.048 L 100 119.048 L 100 100 Z M 119.048 100 L 138.095 100 L 138.095 119.048 L 119.048 119.048 L 119.048 100 Z M 138.095 100 L 157.143 100 L 157.143 119.048 L 138.095 119.048 L 138.095 100 Z M 157.143 100 L 176.19 100 L 176.19 119.048 L 157.143 119.048 L 157.143 100 Z M 176.19 100 L 195.238 100 L 195.238 119.048 L 176.19 119.048 L 176.19 100 Z M 195.238 100 L 214.285 100 L 214.285 119.048 L 195.238 119.048 L 195.238 100 Z M 214.285 100 L 233.333 100 L 233.333 119.048 L 214.285 119.048 L 214.285 100 Z M 271.428 100 L 290.476 100 L 290.476 119.048 L 271.428 119.048 L 271.428 100 Z M 366.667 100 L 385.715 100 L 385.715 119.048 L 366.667 119.048 L 366.667 100 Z M 385.715 100 L 404.762 100 L 404.762 119.048 L 385.715 119.048 L 385.715 100 Z M 404.762 100 L 423.81 100 L 423.81 119.048 L 404.762 119.048 L 404.762 100 Z M 423.81 100 L 442.857 100 L 442.857 119.048 L 423.81 119.048 L 423.81 100 Z M 442.857 100 L 461.905 100 L 461.905 119.048 L 442.857 119.048 L 442.857 100 Z M 461.905 100 L 480.952 100 L 480.952 119.048 L 461.905 119.048 L 461.905 100 Z M 480.952 100 L 500 100 L 500 119.048 L 480.952 119.048 L 480.952 100 Z M 100 119.048 L 119.048 119.048 L 119.048 138.095 L 100 138.095 L 100 119.048 Z M 214.285 119.048 L 233.333 119.048 L 233.333 138.095 L 214.285 138.095 L 214.285 119.048 Z M 252.381 119.048 L 271.428 119.048 L 271.428 138.095 L 252.381 138.095 L 252.381 119.048 Z M 366.667 119.048 L 385.715 119.048 L 385.715 138.095 L 366.667 138.095 L 366.667 119.048 Z M 480.952 119.048 L 500 119.048 L 500 138.095 L 480.952 138.095 L 480.952 119.048 Z M 100 138.095 L 119.048 138.095 L 119.048 157.143 L 100 157.143 L 100 138.095 Z M 138.095 138.095 L 157.143 138.095 L 157.143 157.143 L 138.095 157.143 L 138.095 138.095 Z M 157.143 138.095 L 176.19 138.095 L 176.19 157.143 L 157.143 157.143 L 157.143 138.095 Z M 176.19 138.095 L 195.238 138.095 L 195.238 157.143 L 176.19 157.143 L 176.19 138.095 Z M 214.285 138.095 L 233.333 138.095 L 233.333 157.143 L 214.285 157.143 L 214.285 138.095 Z M 252.381 138.095 L 271.428 138.095 L 271.428 157.143 L 252.381 157.143 L 252.381 138.095 Z M 271.428 138.095 L 290.476 138.095 L 290.476 157.143 L 271.428 157.143 L 271.428 138.095 Z M 290.476 138.095 L 309.524 138.095 L 309.524 157.143 L 290.476 157.143 L 290.476 138.095 Z M 366.667 138.095 L 385.715 138.095 L 385.715 157.143 L 366.667 157.143 L 366.667 138.095 Z M 404.762 138.095 L 423.81 138.095 L 423.81 157.143 L 404.762 157.143 L 404.762 138.095 Z M 423.81 138.095 L 442.857 138.095 L 442.857 157.143 L 423.81 157.143 L 423.81 138.095 Z M 442.857 138.095 L 461.905 138.095 L 461.905 157.143 L 442.857 157.143 L 442.857 138.095 Z M 480.952 138.095 L 500 138.095 L 500 157.143 L 480.952 157.143 L 480.952 138.095 Z M 100 157.143 L 119.048 157.143 L 119.048 176.19 L 100 176.19 L 100 157.143 Z M 138.095 157.143 L 157.143 157.143 L 157.143 176.19 L 138.095 176.19 L 138.095 157.143 Z M 157.143 157.143 L 176.19 157.143 L 176.19 176.19 L 157.143 176.19 L 157.143 157.143 Z M 176.19 157.143 L 195.238 157.143 L 195.238 176.19 L 176.19 176.19 L 176.19 157.143 Z M 214.285 157.143 L 233.333 157.143 L 233.333 176.19 L 214.285 176.19 L 214.285 157.143 Z M 271.428 157.143 L 290.476 157.143 L 290.476 176.19 L 271.428 176.19 L 271.428 157.143 Z M 290.476 157.143 L 309.524 157.143 L 309.524 176.19 L 290.476 176.19 L 290.476 157.143 Z M 309.524 157.143 L 328.572 157.143 L 328.572 176.19 L 309.524 176.19 L 309.524 157.143 Z M 366.667 157.143 L 385.715 157.143 L 385.715 176.19 L 366.667 176.19 L 366.667 157.143 Z M 404.762 157.143 L 423.81 157.143 L 423.81 176.19 L 404.762 176.19 L 404.762 157.143 Z M 423.81 157.143 L 442.857 157.143 L 442.857 176.19 L 423.81 176.19 L 423.81 157.143 Z M 442.857 157.143 L 461.905 157.143 L 461.905 176.19 L 442.857 176.19 L 442.857 157.143 Z M 480.952 157.143 L 500 157.143 L 500 176.19 L 480.952 176.19 L 480.952 157.143 Z M 100 176.19 L 119.048 176.19 L 119.048 195.238 L 100 195.238 L 100 176.19 Z M 138.095 176.19 L 157.143 176.19 L 157.143 195.238 L 138.095 195.238 L 138.095 176.19 Z M 157.143 176.19 L 176.19 176.19 L 176.19 195.238 L 157.143 195.238 L 157.143 176.19 Z M 176.19 176.19 L 195.238 176.19 L 195.238 195.238 L 176.19 195.238 L 176.19 176.19 Z M 214.285 176.19 L 233.333 176.19 L 233.333 195.238 L 214.285 195.238 L 214.285 176.19 Z M 252.381 176.19 L 271.428 176.19 L 271.428 195.238 L 252.381 195.238 L 252.381 176.19 Z M 271.428 176.19 L 290.476 176.19 L 290.476 195.238 L 271.428 195.238 L 271.428 176.19 Z M 290.476 176.19 L 309.524 176.19 L 309.524 195.238 L 290.476 195.238 L 290.476 176.19 Z M 366.667 176.19 L 385.715 176.19 L 385.715 195.238 L 366.667 195.238 L 366.667 176.19 Z M 404.762 176.19 L 423.81 176.19 L 423.81 195.238 L 404.762 195.238 L 404.762 176.19 Z M 423.81 176.19 L 442.857 176.19 L 442.857 195.238 L 423.81 195.238 L 423.81 176.19 Z M 442.857 176.19 L 461.905 176.19 L 461.905 195.238 L 442.857 195.238 L 442.857 176.19 Z M 480.952 176.19 L 500 176.19 L 500 195.238 L 480.952 195.238 L 480.952 176.19 Z M 100 195.238 L 119.048 195.238 L 119.048 214.285 L 100 214.285 L 100 195.238 Z M 214.285 195.238 L 233.333 195.238 L 233.333 214.285 L 214.285 214.285 L 214.285 195.238 Z M 252.381 195.238 L 271.428 195.238 L 271.428 214.285 L 252.381 214.285 L 252.381 195.238 Z M 309.524 195.238 L 328.572 195.238 L 328.572 214.285 L 309.524 214.285 L 309.524 195.238 Z M 366.667 195.238 L 385.715 195.238 L 385.715 214.285 L 366.667 214.285 L 366.667 195.238 Z M 480.952 195.238 L 500 195.238 L 500 214.285 L 480.952 214.285 L 480.952 195.238 Z M 100 214.285 L 119.048 214.285 L 119.048 233.333 L 100 233.333 L 100 214.285 Z M 119.048 214.285 L 138.095 214.285 L 138.095 233.333 L 119.048 233.333 L 119.048 214.285 Z M 138.095 214.285 L 157.143 214.285 L 157.143 233.333 L 138.095 233.333 L 138.095 214.285 Z M 157.143 214.285 L 176.19 214.285 L 176.19 233.333 L 157.143 233.333 L 157.143 214.285 Z M 176.19 214.285 L 195.238 214.285 L 195.238 233.333 L 176.19 233.333 L 176.19 214.285 Z M 195.238 214.285 L 214.285 214.285 L 214.285 233.333 L 195.238 233.333 L 195.238 214.285 Z M 214.285 214.285 L 233.333 214.285 L 233.333 233.333 L 214.285 233.333 L 214.285 214.285 Z M 252.381 214.285 L 271.428 214.285 L 271.428 233.333 L 252.381 233.333 L 252.381 214.285 Z M 290.476 214.285 L 309.524 214.285 L 309.524 233.333 L 290.476 233.333 L 290.476 214.285 Z M 328.572 214.285 L 347.619 214.285 L 347.619 233.333 L 328.572 233.333 L 328.572 214.285 Z M 366.667 214.285 L 385.715 214.285 L 385.715 233.333 L 366.667 233.333 L 366.667 214.285 Z M 385.715 214.285 L 404.762 214.285 L 404.762 233.333 L 385.715 233.333 L 385.715 214.285 Z M 404.762 214.285 L 423.81 214.285 L 423.81 233.333 L 404.762 233.333 L 404.762 214.285 Z M 423.81 214.285 L 442.857 214.285 L 442.857 233.333 L 423.81 233.333 L 423.81 214.285 Z M 442.857 214.285 L 461.905 214.285 L 461.905 233.333 L 442.857 233.333 L 442.857 214.285 Z M 461.905 214.285 L 480.952 214.285 L 480.952 233.333 L 461.905 233.333 L 461.905 214.285 Z M 480.952 214.285 L 500 214.285 L 500 233.333 L 480.952 233.333 L 480.952 214.285 Z M 252.381 233.333 L 271.428 233.333 L 271.428 252.381 L 252.381 252.381 L 252.381 233.333 Z M 271.428 233.333 L 290.476 233.333 L 290.476 252.381 L 271.428 252.381 L 271.428 233.333 Z M 290.476 233.333 L 309.524 233.333 L 309.524 252.381 L 290.476 252.381 L 290.476 233.333 Z M 309.524 233.333 L 328.572 233.333 L 328.572 252.381 L 309.524 252.381 L 309.524 233.333 Z M 328.572 233.333 L 347.619 233.333 L 347.619 252.381 L 328.572 252.381 L 328.572 233.333 Z M 100 252.381 L 119.048 252.381 L 119.048 271.428 L 100 271.428 L 100 252.381 Z M 119.048 252.381 L 138.095 252.381 L 138.095 271.428 L 119.048 271.428 L 119.048 252.381 Z M 157.143 252.381 L 176.19 252.381 L 176.19 271.428 L 157.143 271.428 L 157.143 252.381 Z M 214.285 252.381 L 233.333 252.381 L 233.333 271.428 L 214.285 271.428 L 214.285 252.381 Z M 233.333 252.381 L 252.381 252.381 L 252.381 271.428 L 233.333 271.428 L 233.333 252.381 Z M 290.476 252.381 L 309.524 252.381 L 309.524 271.428 L 290.476 271.428 L 290.476 252.381 Z M 366.667 252.381 L 385.715 252.381 L 385.715 271.428 L 366.667 271.428 L 366.667 252.381 Z M 385.715 252.381 L 404.762 252.381 L 404.762 271.428 L 385.715 271.428 L 385.715 252.381 Z M 404.762 252.381 L 423.81 252.381 L 423.81 271.428 L 404.762 271.428 L 404.762 252.381 Z M 442.857 252.381 L 461.905 252.381 L 461.905 271.428 L 442.857 271.428 L 442.857 252.381 Z M 461.905 252.381 L 480.952 252.381 L 480.952 271.428 L 461.905 271.428 L 461.905 252.381 Z M 119.048 271.428 L 138.095 271.428 L 138.095 290.476 L 119.048 290.476 L 119.048 271.428 Z M 138.095 271.428 L 157.143 271.428 L 157.143 290.476 L 138.095 290.476 L 138.095 271.428 Z M 157.143 271.428 L 176.19 271.428 L 176.19 290.476 L 157.143 290.476 L 157.143 271.428 Z M 195.238 271.428 L 214.285 271.428 L 214.285 290.476 L 195.238 290.476 L 195.238 271.428 Z M 233.333 271.428 L 252.381 271.428 L 252.381 290.476 L 233.333 290.476 L 233.333 271.428 Z M 309.524 271.428 L 328.572 271.428 L 328.572 290.476 L 309.524 290.476 L 309.524 271.428 Z M 328.572 271.428 L 347.619 271.428 L 347.619 290.476 L 328.572 290.476 L 328.572 271.428 Z M 347.619 271.428 L 366.667 271.428 L 366.667 290.476 L 347.619 290.476 L 347.619 271.428 Z M 404.762 271.428 L 423.81 271.428 L 423.81 290.476 L 404.762 290.476 L 404.762 271.428 Z M 423.81 271.428 L 442.857 271.428 L 442.857 290.476 L 423.81 290.476 L 423.81 271.428 Z M 442.857 271.428 L 461.905 271.428 L 461.905 290.476 L 442.857 290.476 L 442.857 271.428 Z M 480.952 271.428 L 500 271.428 L 500 290.476 L 480.952 290.476 L 480.952 271.428 Z M 100 290.476 L 119.048 290.476 L 119.048 309.524 L 100 309.524 L 100 290.476 Z M 119.048 290.476 L 138.095 290.476 L 138.095 309.524 L 119.048 309.524 L 119.048 290.476 Z M 138.095 290.476 L 157.143 290.476 L 157.143 309.524 L 138.095 309.524 L 138.095 290.476 Z M 157.143 290.476 L 176.19 290.476 L 176.19 309.524 L 157.143 309.524 L 157.143 290.476 Z M 176.19 290.476 L 195.238 290.476 L 195.238 309.524 L 176.19 309.524 L 176.19 290.476 Z M 195.238 290.476 L 214.285 290.476 L 214.285 309.524 L 195.238 309.524 L 195.238 290.476 Z M 214.285 290.476 L 233.333 290.476 L 233.333 309.524 L 214.285 309.524 L 214.285 290.476 Z M 233.333 290.476 L 252.381 290.476 L 252.381 309.524 L 233.333 309.524 L 233.333 290.476 Z M 328.572 290.476 L 347.619 290.476 L 347.619 309.524 L 328.572 309.524 L 328.572 290.476 Z M 347.619 290.476 L 366.667 290.476 L 366.667 309.524 L 347.619 309.524 L 347.619 290.476 Z M 385.715 290.476 L 404.762 290.476 L 404.762 309.524 L 385.715 309.524 L 385.715 290.476 Z M 423.81 290.476 L 442.857 290.476 L 442.857 309.524 L 423.81 309.524 L 423.81 290.476 Z M 442.857 290.476 L 461.905 290.476 L 461.905 309.524 L 442.857 309.524 L 442.857 290.476 Z M 480.952 290.476 L 500 290.476 L 500 309.524 L 480.952 309.524 L 480.952 290.476 Z M 100 309.524 L 119.048 309.524 L 119.048 328.572 L 100 328.572 L 100 309.524 Z M 157.143 309.524 L 176.19 309.524 L 176.19 328.572 L 157.143 328.572 L 157.143 309.524 Z M 195.238 309.524 L 214.285 309.524 L 214.285 328.572 L 195.238 328.572 L 195.238 309.524 Z M 233.333 309.524 L 252.381 309.524 L 252.381 328.572 L 233.333 328.572 L 233.333 309.524 Z M 290.476 309.524 L 309.524 309.524 L 309.524 328.572 L 290.476 328.572 L 290.476 309.524 Z M 309.524 309.524 L 328.572 309.524 L 328.572 328.572 L 309.524 328.572 L 309.524 309.524 Z M 328.572 309.524 L 347.619 309.524 L 347.619 328.572 L 328.572 328.572 L 328.572 309.524 Z M 366.667 309.524 L 385.715 309.524 L 385.715 328.572 L 366.667 328.572 L 366.667 309.524 Z M 423.81 309.524 L 442.857 309.524 L 442.857 328.572 L 423.81 328.572 L 423.81 309.524 Z M 100 328.572 L 119.048 328.572 L 119.048 347.619 L 100 347.619 L 100 328.572 Z M 138.095 328.572 L 157.143 328.572 L 157.143 347.619 L 138.095 347.619 L 138.095 328.572 Z M 214.285 328.572 L 233.333 328.572 L 233.333 347.619 L 214.285 347.619 L 214.285 328.572 Z M 233.333 328.572 L 252.381 328.572 L 252.381 347.619 L 233.333 347.619 L 233.333 328.572 Z M 252.381 328.572 L 271.428 328.572 L 271.428 347.619 L 252.381 347.619 L 252.381 328.572 Z M 328.572 328.572 L 347.619 328.572 L 347.619 347.619 L 328.572 347.619 L 328.572 328.572 Z M 385.715 328.572 L 404.762 328.572 L 404.762 347.619 L 385.715 347.619 L 385.715 328.572 Z M 404.762 328.572 L 423.81 328.572 L 423.81 347.619 L 404.762 347.619 L 404.762 328.572 Z M 480.952 328.572 L 500 328.572 L 500 347.619 L 480.952 347.619 L 480.952 328.572 Z M 252.381 347.619 L 271.428 347.619 L 271.428 366.667 L 252.381 366.667 L 252.381 347.619 Z M 328.572 347.619 L 347.619 347.619 L 347.619 366.667 L 328.572 366.667 L 328.572 347.619 Z M 385.715 347.619 L 404.762 347.619 L 404.762 366.667 L 385.715 366.667 L 385.715 347.619 Z M 442.857 347.619 L 461.905 347.619 L 461.905 366.667 L 442.857 366.667 L 442.857 347.619 Z M 480.952 347.619 L 500 347.619 L 500 366.667 L 480.952 366.667 L 480.952 347.619 Z M 100 366.667 L 119.048 366.667 L 119.048 385.715 L 100 385.715 L 100 366.667 Z M 119.048 366.667 L 138.095 366.667 L 138.095 385.715 L 119.048 385.715 L 119.048 366.667 Z M 138.095 366.667 L 157.143 366.667 L 157.143 385.715 L 138.095 385.715 L 138.095 366.667 Z M 157.143 366.667 L 176.19 366.667 L 176.19 385.715 L 157.143 385.715 L 157.143 366.667 Z M 176.19 366.667 L 195.238 366.667 L 195.238 385.715 L 176.19 385.715 L 176.19 366.667 Z M 195.238 366.667 L 214.285 366.667 L 214.285 385.715 L 195.238 385.715 L 195.238 366.667 Z M 214.285 366.667 L 233.333 366.667 L 233.333 385.715 L 214.285 385.715 L 214.285 366.667 Z M 252.381 366.667 L 271.428 366.667 L 271.428 385.715 L 252.381 385.715 L 252.381 366.667 Z M 290.476 366.667 L 309.524 366.667 L 309.524 385.715 L 290.476 385.715 L 290.476 366.667 Z M 328.572 366.667 L 347.619 366.667 L 347.619 385.715 L 328.572 385.715 L 328.572 366.667 Z M 347.619 366.667 L 366.667 366.667 L 366.667 385.715 L 347.619 385.715 L 347.619 366.667 Z M 366.667 366.667 L 385.715 366.667 L 385.715 385.715 L 366.667 385.715 L 366.667 366.667 Z M 385.715 366.667 L 404.762 366.667 L 404.762 385.715 L 385.715 385.715 L 385.715 366.667 Z M 404.762 366.667 L 423.81 366.667 L 423.81 385.715 L 404.762 385.715 L 404.762 366.667 Z M 423.81 366.667 L 442.857 366.667 L 442.857 385.715 L 423.81 385.715 L 423.81 366.667 Z M 442.857 366.667 L 461.905 366.667 L 461.905 385.715 L 442.857 385.715 L 442.857 366.667 Z M 461.905 366.667 L 480.952 366.667 L 480.952 385.715 L 461.905 385.715 L 461.905 366.667 Z M 100 385.715 L 119.048 385.715 L 119.048 404.762 L 100 404.762 L 100 385.715 Z M 214.285 385.715 L 233.333 385.715 L 233.333 404.762 L 214.285 404.762 L 214.285 385.715 Z M 271.428 385.715 L 290.476 385.715 L 290.476 404.762 L 271.428 404.762 L 271.428 385.715 Z M 328.572 385.715 L 347.619 385.715 L 347.619 404.762 L 328.572 404.762 L 328.572 385.715 Z M 385.715 385.715 L 404.762 385.715 L 404.762 404.762 L 385.715 404.762 L 385.715 385.715 Z M 100 404.762 L 119.048 404.762 L 119.048 423.81 L 100 423.81 L 100 404.762 Z M 138.095 404.762 L 157.143 404.762 L 157.143 423.81 L 138.095 423.81 L 138.095 404.762 Z M 157.143 404.762 L 176.19 404.762 L 176.19 423.81 L 157.143 423.81 L 157.143 404.762 Z M 176.19 404.762 L 195.238 404.762 L 195.238 423.81 L 176.19 423.81 L 176.19 404.762 Z M 214.285 404.762 L 233.333 404.762 L 233.333 423.81 L 214.285 423.81 L 214.285 404.762 Z M 271.428 404.762 L 290.476 404.762 L 290.476 423.81 L 271.428 423.81 L 271.428 404.762 Z M 328.572 404.762 L 347.619 404.762 L 347.619 423.81 L 328.572 423.81 L 328.572 404.762 Z M 347.619 404.762 L 366.667 404.762 L 366.667 423.81 L 347.619 423.81 L 347.619 404.762 Z M 385.715 404.762 L 404.762 404.762 L 404.762 423.81 L 385.715 423.81 L 385.715 404.762 Z M 461.905 404.762 L 480.952 404.762 L 480.952 423.81 L 461.905 423.81 L 461.905 404.762 Z M 480.952 404.762 L 500 404.762 L 500 423.81 L 480.952 423.81 L 480.952 404.762 Z M 100 423.81 L 119.048 423.81 L 119.048 442.857 L 100 442.857 L 100 423.81 Z M 138.095 423.81 L 157.143 423.81 L 157.143 442.857 L 138.095 442.857 L 138.095 423.81 Z M 157.143 423.81 L 176.19 423.81 L 176.19 442.857 L 157.143 442.857 L 157.143 423.81 Z M 176.19 423.81 L 195.238 423.81 L 195.238 442.857 L 176.19 442.857 L 176.19 423.81 Z M 214.285 423.81 L 233.333 423.81 L 233.333 442.857 L 214.285 442.857 L 214.285 423.81 Z M 252.381 423.81 L 271.428 423.81 L 271.428 442.857 L 252.381 442.857 L 252.381 423.81 Z M 271.428 423.81 L 290.476 423.81 L 290.476 442.857 L 271.428 442.857 L 271.428 423.81 Z M 290.476 423.81 L 309.524 423.81 L 309.524 442.857 L 290.476 442.857 L 290.476 423.81 Z M 309.524 423.81 L 328.572 423.81 L 328.572 442.857 L 309.524 442.857 L 309.524 423.81 Z M 328.572 423.81 L 347.619 423.81 L 347.619 442.857 L 328.572 442.857 L 328.572 423.81 Z M 347.619 423.81 L 366.667 423.81 L 366.667 442.857 L 347.619 442.857 L 347.619 423.81 Z M 385.715 423.81 L 404.762 423.81 L 404.762 442.857 L 385.715 442.857 L 385.715 423.81 Z M 404.762 423.81 L 423.81 423.81 L 423.81 442.857 L 404.762 442.857 L 404.762 423.81 Z M 442.857 423.81 L 461.905 423.81 L 461.905 442.857 L 442.857 442.857 L 442.857 423.81 Z M 480.952 423.81 L 500 423.81 L 500 442.857 L 480.952 442.857 L 480.952 423.81 Z M 100 442.857 L 119.048 442.857 L 119.048 461.905 L 100 461.905 L 100 442.857 Z M 138.095 442.857 L 157.143 442.857 L 157.143 461.905 L 138.095 461.905 L 138.095 442.857 Z M 157.143 442.857 L 176.19 442.857 L 176.19 461.905 L 157.143 461.905 L 157.143 442.857 Z M 176.19 442.857 L 195.238 442.857 L 195.238 461.905 L 176.19 461.905 L 176.19 442.857 Z M 214.285 442.857 L 233.333 442.857 L 233.333 461.905 L 214.285 461.905 L 214.285 442.857 Z M 309.524 442.857 L 328.572 442.857 L 328.572 461.905 L 309.524 461.905 L 309.524 442.857 Z M 328.572 442.857 L 347.619 442.857 L 347.619 461.905 L 328.572 461.905 L 328.572 442.857 Z M 366.667 442.857 L 385.715 442.857 L 385.715 461.905 L 366.667 461.905 L 366.667 442.857 Z M 385.715 442.857 L 404.762 442.857 L 404.762 461.905 L 385.715 461.905 L 385.715 442.857 Z M 404.762 442.857 L 423.81 442.857 L 423.81 461.905 L 404.762 461.905 L 404.762 442.857 Z M 423.81 442.857 L 442.857 442.857 L 442.857 461.905 L 423.81 461.905 L 423.81 442.857 Z M 442.857 442.857 L 461.905 442.857 L 461.905 461.905 L 442.857 461.905 L 442.857 442.857 Z M 480.952 442.857 L 500 442.857 L 500 461.905 L 480.952 461.905 L 480.952 442.857 Z M 100 461.905 L 119.048 461.905 L 119.048 480.952 L 100 480.952 L 100 461.905 Z M 214.285 461.905 L 233.333 461.905 L 233.333 480.952 L 214.285 480.952 L 214.285 461.905 Z M 252.381 461.905 L 271.428 461.905 L 271.428 480.952 L 252.381 480.952 L 252.381 461.905 Z M 271.428 461.905 L 290.476 461.905 L 290.476 480.952 L 271.428 480.952 L 271.428 461.905 Z M 347.619 461.905 L 366.667 461.905 L 366.667 480.952 L 347.619 480.952 L 347.619 461.905 Z M 385.715 461.905 L 404.762 461.905 L 404.762 480.952 L 385.715 480.952 L 385.715 461.905 Z M 100 480.952 L 119.048 480.952 L 119.048 500 L 100 500 L 100 480.952 Z M 119.048 480.952 L 138.095 480.952 L 138.095 500 L 119.048 500 L 119.048 480.952 Z M 138.095 480.952 L 157.143 480.952 L 157.143 500 L 138.095 500 L 138.095 480.952 Z M 157.143 480.952 L 176.19 480.952 L 176.19 500 L 157.143 500 L 157.143 480.952 Z M 176.19 480.952 L 195.238 480.952 L 195.238 500 L 176.19 500 L 176.19 480.952 Z M 195.238 480.952 L 214.285 480.952 L 214.285 500 L 195.238 500 L 195.238 480.952 Z M 214.285 480.952 L 233.333 480.952 L 233.333 500 L 214.285 500 L 214.285 480.952 Z M 252.381 480.952 L 271.428 480.952 L 271.428 500 L 252.381 500 L 252.381 480.952 Z M 290.476 480.952 L 309.524 480.952 L 309.524 500 L 290.476 500 L 290.476 480.952 Z M 328.572 480.952 L 347.619 480.952 L 347.619 500 L 328.572 500 L 328.572 480.952 Z M 366.667 480.952 L 385.715 480.952 L 385.715 500 L 366.667 500 L 366.667 480.952 Z M 385.715 480.952 L 404.762 480.952 L 404.762 500 L 385.715 500 L 385.715 480.952 Z M 423.81 480.952 L 442.857 480.952 L 442.857 500 L 423.81 500 L 423.81 480.952 Z M 461.905 480.952 L 480.952 480.952 L 480.952 500 L 461.905 500 L 461.905 480.952 Z" stroke="transparent" style="fill: rgb(110, 145, 119);"/>
</svg>