<?xml version="1.0" standalone="no"?>
<!DOCTYPE svg PUBLIC "-//W3C//DTD SVG 20010904//EN"
 "http://www.w3.org/TR/2001/REC-SVG-20010904/DTD/svg10.dtd">
<svg version="1.0" xmlns="http://www.w3.org/2000/svg"
 width="990.000000pt" height="990.000000pt" viewBox="0 0 990.000000 990.000000"
 preserveAspectRatio="xMidYMid meet">
<metadata>
Created by potrace 1.14, written by Peter Selinger 2001-2017
</metadata>
<g transform="translate(0.000000,990.000000) scale(0.100000,-0.100000)"
fill="#000000" stroke="none">
<path d="M6600 8266 l0 -1636 393 0 c217 0 651 3 966 7 l572 6 -6 1016 c-3
559 -8 1214 -11 1456 l-6 440 -942 169 c-517 93 -947 171 -953 173 -10 4 -13
-326 -13 -1631z"/>
<path d="M3170 9874 c-36 -7 -317 -61 -625 -119 -896 -170 -1165 -222 -1168
-226 -1 -2 -1 -652 1 -1445 l3 -1441 637 -6 c350 -4 775 -7 945 -7 l307 0 0
1630 c0 1546 -1 1630 -17 1629 -10 -1 -47 -7 -83 -15z"/>
<path d="M3277 6563 c-4 -38 -7 -775 -7 -1639 l0 -1571 263 -7 c144 -3 710 -9
1257 -12 547 -4 1006 -8 1020 -10 14 -1 195 -3 402 -3 l378 -1 2 -1658 3
-1658 955 349 c525 192 956 350 957 351 3 3 23 2969 20 2972 -1 1 -429 -78
-952 -177 -522 -98 -958 -178 -967 -179 -17 0 -18 85 -18 1655 l0 1655 -1654
0 -1653 0 -6 -67z"/>
<path d="M1377 3222 c-4 -256 -7 -920 -7 -1476 l0 -1011 178 -67 c97 -37 521
-198 941 -357 420 -160 768 -291 774 -291 7 0 8 517 4 1661 -3 914 -8 1663 -9
1664 -2 2 -417 78 -923 169 -506 92 -927 168 -936 170 -14 3 -16 -44 -22 -462z"/>
</g>
</svg>
